HIERARCHY
ROOT Hips
{
	OFFSET 0.00000 0.00000 0.00000
	CHANNELS 6 Xposition Yposition Zposition Zrotation Yrotation Xrotation 
	JOINT LHipJoint
	{
		OFFSET 0 0 0
		CHANNELS 3 Zrotation Yrotation Xrotation
		JOINT LeftHip
		{
			OFFSET 1.44361 -1.63093 0.70831
			CHANNELS 3 Zrotation Yrotation Xrotation
			JOINT LeftKnee
			{
				OFFSET 2.20103 -6.04728 0.00000
				CHANNELS 3 Zrotation Yrotation Xrotation
				JOINT LeftAnkle
				{
					OFFSET 2.54154 -6.98283 0.00000
					CHANNELS 3 Zrotation Yrotation Xrotation
					JOINT LeftToe
					{
						OFFSET 0.05971 -0.16406 1.77582
						CHANNELS 3 Zrotation Yrotation Xrotation
						End Site
						{
							OFFSET 0.00000 -0.00000 0.90832
						}
					}
				}
			}
		}
	}
	JOINT RHipJoint
	{
		OFFSET 0 0 0
		CHANNELS 3 Zrotation Yrotation Xrotation
		JOINT RightHip
		{
			OFFSET -1.65838 -1.63093 0.70830
			CHANNELS 3 Zrotation Yrotation Xrotation
			JOINT RightKnee
			{
				OFFSET -2.26926 -6.23475 0.00000
				CHANNELS 3 Zrotation Yrotation Xrotation
				JOINT RightAnkle
				{
					OFFSET -2.34808 -6.45129 0.00000
					CHANNELS 3 Zrotation Yrotation Xrotation
					JOINT RightToe
					{
						OFFSET -0.18633 -0.51195 1.68539
						CHANNELS 3 Zrotation Yrotation Xrotation
						End Site
						{
							OFFSET -0.00000 -0.00000 0.88927
						}
					}
				}
			}
		}
	}
	JOINT lowerback
	{
		OFFSET 0 0 0
		CHANNELS 3 Zrotation Yrotation Xrotation
		JOINT Chest
		{
			OFFSET -0.10393 2.01691 0.06920
			CHANNELS 3 Zrotation Yrotation Xrotation
			JOINT Chest2
			{
				OFFSET 0.04092 2.01302 -0.05283
				CHANNELS 3 Zrotation Yrotation Xrotation
				JOINT lowerneck
				{
					OFFSET 0 0 0
					CHANNELS 3 Zrotation Yrotation Xrotation
					JOINT Neck
					{
						OFFSET -0.02870 1.58978 -0.03113
						CHANNELS 3 Zrotation Yrotation Xrotation
						JOINT Head
						{
							OFFSET 0.11532 1.54326 -0.29195
							CHANNELS 3 Zrotation Yrotation Xrotation
							End Site
							{
								OFFSET 0.04056 1.59999 -0.09535
							}
						}
					}
				}
				JOINT LeftCollar
				{
					OFFSET 0 0 0
					CHANNELS 3 Zrotation Yrotation Xrotation
					JOINT LeftShoulder
					{
						OFFSET 3.30641 1.15764 0.01104
CHANNELS 3 Zrotation Xrotation Yrotation
						JOINT LeftElbow
						{
OFFSET 0 -4.632080 0.000000
CHANNELS 3 Zrotation Xrotation Yrotation
							JOINT LeftWrist
							{
OFFSET 0 -3.419240 -0.000000
CHANNELS 3 Zrotation Xrotation Yrotation
								JOINT lhand
								{
									OFFSET 0 0 0
CHANNELS 3 Zrotation Xrotation Yrotation
									JOINT LFingers
									{
OFFSET 0 -0.625370 -0.000000
CHANNELS 3 Zrotation Xrotation Yrotation
										End Site
										{
OFFSET 0 -0.504190 -0.000000
										}
									}
								}
								JOINT LThumb
								{
OFFSET 0 0.000000 0.000000
CHANNELS 3 Zrotation Xrotation Yrotation
									End Site
									{
OFFSET 0 -0.511890 0.511890
									}
								}
							}
						}
					}
				}
				JOINT RightCollar
				{
					OFFSET 0 0 0
					CHANNELS 3 Zrotation Yrotation Xrotation
					JOINT RightShoulder
					{
						OFFSET -3.78081 1.02180 -0.16609
CHANNELS 3 Zrotation Xrotation Yrotation
						JOINT RightElbow
						{
OFFSET 0 -4.406400 -0.000000
CHANNELS 3 Zrotation Xrotation Yrotation
							JOINT RightWrist
							{
OFFSET 0 -3.446750 0.000000
CHANNELS 3 Zrotation Xrotation Yrotation
								JOINT rhand
								{
									OFFSET 0 0 0
CHANNELS 3 Zrotation Xrotation Yrotation
									JOINT RFingers
									{
OFFSET 0 -0.513670 -0.000000
CHANNELS 3 Zrotation Xrotation Yrotation
										End Site
										{
OFFSET 0 -0.414140 -0.000000
										}
									}
								}
								JOINT RThumb
								{
OFFSET 0 0.000000 0.000000
CHANNELS 3 Zrotation Xrotation Yrotation
									End Site
									{
OFFSET 0 -0.420460 0.420460
									}
								}
							}
						}
					}
				}
			}
		}
	}
}
MOTION
Frames: 9
Frame Time: 0.008333333333333333
9.111300 16.683000 23.240200 -178.981000 4.366500 -166.819000 0.000000 0.000000 0.000000 -17.605100 -12.243000 -8.974700 0.199200 2.874000 7.928200 0.450800 -2.604800 -12.054500 8.020200 -16.134100 -52.635400 0.000000 0.000000 0.000000 21.205800 4.670800 -10.261800 -0.211600 -2.961800 8.172500 -0.094700 -0.481600 -6.008300 -0.073100 1.744600 -4.800400 -8.253100 1.297700 -9.292600 3.318800 2.523900 1.543700 8.602000 0.880900 6.376700 -2.283400 0.178100 -7.611400 0.999500 -3.230900 32.194400 0.133700 -2.803200 11.814500 -0.000000 -0.000000 0.000000 -3.814000 -0.062500 -14.254700 9.376000 -15.757700 1.300400 33.128000 12.049400 19.611800 0.000000 0.000000 0.000000 -7.125000 0.000000 0.000000 3.039100 6.958300 2.652400 -0.000000 -0.000000 0.000000 -0.679500 9.589800 -3.028900 -18.468100 -28.752400 -4.772300 -20.283100 23.352500 34.562900 0.000000 0.000000 0.000000 7.125000 0.000000 -0.000000 16.615100 65.554000 -8.353400
9.115816 16.681387 23.236706 -178.991214 4.310486 -166.881357 0.000000 0.000000 0.000000 -17.616174 -12.236065 -8.916213 0.201942 2.893729 7.983031 0.453058 -2.540454 -12.094065 8.180179 -16.249138 -53.207474 0.000000 0.000000 0.000000 21.228431 4.711762 -10.137462 -0.210955 -2.957338 8.160136 -0.101097 -0.504661 -6.207789 -0.091968 1.947100 -5.359841 -8.061620 1.361939 -9.215083 3.174626 2.586687 1.544506 8.336014 0.923045 6.333104 -2.556804 0.254111 -6.921492 2.045543 -3.123710 30.928763 0.609228 -2.604194 11.197271 0.000000 0.000000 0.000000 -3.461466 0.029961 -14.294963 9.327458 -15.680721 1.287230 33.029949 12.387634 19.323075 0.000000 0.000000 0.000000 -7.125000 0.000000 0.000000 3.021092 7.309275 2.616007 0.000000 0.000000 0.000000 -0.405504 9.587811 -3.620434 -18.191202 -28.400081 -4.640490 -20.321536 23.763682 34.844422 0.000000 0.000000 0.000000 7.125000 0.000000 0.000000 16.848993 65.831597 -8.582832
9.120203 16.679790 23.232956 -179.001052 4.245690 -166.933723 0.000000 0.000000 0.000000 -17.624979 -12.233976 -8.868567 0.204773 2.913983 8.039328 0.455000 -2.489773 -12.127522 8.330368 -16.356860 -53.744082 0.000000 0.000000 0.000000 21.250988 4.745678 -10.022041 -0.210032 -2.950901 8.142250 -0.107532 -0.525514 -6.406107 -0.109470 2.133215 -5.874072 -7.866527 1.421091 -9.149219 3.030519 2.643187 1.542398 8.067985 0.962035 6.294578 -2.607057 0.373853 -6.502163 2.803744 -2.947690 29.964618 0.941357 -2.388751 10.744663 0.000000 0.000000 0.000000 -3.111119 0.118387 -14.306522 9.276685 -15.600204 1.273488 32.918232 12.780357 19.008102 0.000000 0.000000 0.000000 -7.125000 0.000000 0.000000 2.997945 7.693026 2.573401 0.000000 0.000000 0.000000 -0.125506 9.588699 -4.224116 -17.916414 -28.049746 -4.510047 -20.414956 24.177726 35.009341 0.000000 0.000000 0.000000 7.125000 0.000000 0.000000 16.903781 66.013936 -8.683559
9.123805 16.678284 23.227634 -179.008578 4.126835 -166.924584 0.000000 0.000000 0.000000 -17.619818 -12.261715 -8.887650 0.208160 2.937474 8.104642 0.455000 -2.523209 -12.123382 8.420303 -16.419539 -54.062372 0.000000 0.000000 0.000000 21.273081 4.736217 -9.961511 -0.207398 -2.932301 8.090376 -0.114197 -0.532771 -6.597211 -0.118554 2.218472 -6.110009 -7.649190 1.448937 -9.155078 2.886829 2.660980 1.522347 7.787377 0.981602 6.287267 -1.283685 0.762780 -7.748394 1.790116 -2.347985 30.856327 0.390785 -2.072127 11.305395 0.000000 0.000000 0.000000 -2.774229 0.181981 -14.141382 9.212177 -15.497906 1.256233 32.722398 13.508486 18.531552 0.000000 0.000000 0.000000 -7.125000 0.000000 0.000000 2.943167 8.278540 2.492552 0.000000 0.000000 0.000000 0.191441 9.607299 -4.902573 -17.654621 -27.711619 -4.388020 -20.846833 24.609388 34.456512 0.000000 0.000000 0.000000 7.125000 0.000000 0.000000 15.856071 65.609904 -7.992038
9.127121 16.676915 23.222012 -179.023316 4.021863 -166.920855 0.000000 0.000000 0.000000 -17.628105 -12.286944 -8.891634 0.210645 2.954716 8.152602 0.454850 -2.554497 -12.117215 8.495437 -16.471792 -54.328106 0.000000 0.000000 0.000000 21.282720 4.713789 -9.905610 -0.205154 -2.916451 8.046209 -0.124244 -0.521097 -6.861501 -0.153152 2.476668 -6.827588 -7.411450 1.476107 -9.153786 2.724477 2.675904 1.502416 7.474556 1.000793 6.278274 -0.235482 1.083342 -8.758762 1.091232 -1.897569 31.594494 -0.010723 -1.821538 11.771438 0.000000 0.000000 0.000000 -2.414169 0.239730 -13.937388 9.142231 -15.386848 1.237610 32.546051 14.221244 18.109379 0.000000 0.000000 0.000000 -7.125000 0.000000 0.000000 2.892206 8.797567 2.419140 0.000000 0.000000 0.000000 0.528551 9.615847 -5.576013 -17.390950 -27.369676 -4.265858 -21.257511 25.021999 33.886464 0.000000 0.000000 0.000000 7.125000 0.000000 0.000000 14.833679 65.179954 -7.315858
9.129702 16.675893 23.215615 -179.056644 3.952678 -166.931068 0.000000 0.000000 0.000000 -17.671056 -12.305705 -8.856692 0.210806 2.955844 8.155827 0.454312 -2.580246 -12.105818 8.532422 -16.497165 -54.458357 0.000000 0.000000 0.000000 21.260249 4.657936 -9.861637 -0.203918 -2.907689 8.021911 -0.143005 -0.460621 -7.314451 -0.253515 3.180660 -8.786735 -7.121112 1.501534 -9.134057 2.514021 2.683429 1.482795 7.078694 1.019017 6.264942 0.103397 1.227678 -9.161128 1.203690 -1.831987 31.936868 -0.027979 -1.741172 11.993398 0.000000 0.000000 0.000000 -1.994387 0.282412 -13.633235 9.058264 -15.253210 1.215462 32.419939 14.894379 17.827373 0.000000 0.000000 0.000000 -7.125000 0.000000 0.000000 2.851082 9.145209 2.364900 0.000000 0.000000 0.000000 0.917639 9.598484 -6.236516 -17.122437 -27.017895 -4.143347 -21.613539 25.385499 33.272030 0.000000 0.000000 0.000000 7.125000 0.000000 0.000000 13.876549 64.683192 -6.679223
9.132079 16.674714 23.209195 -179.080733 3.909322 -166.953002 0.000000 0.000000 0.000000 -17.709230 -12.311957 -8.804577 0.210675 2.954900 8.153260 0.454879 -2.588709 -12.112091 8.552976 -16.511269 -54.530777 0.000000 0.000000 0.000000 21.246366 4.601272 -9.818543 -0.203245 -2.902961 8.008769 -0.168189 -0.145403 -7.797309 -0.374680 3.889610 -10.771710 -6.839023 1.515511 -9.098665 2.322970 2.675247 1.468222 6.706836 1.028901 6.249582 0.185168 1.321259 -9.427164 1.541885 -1.863969 32.199256 0.074440 -1.711290 12.160118 0.000000 0.000000 0.000000 -1.615803 0.323562 -13.275894 8.968820 -15.110669 1.192052 32.353799 15.390956 17.691434 0.000000 0.000000 0.000000 -7.125000 0.000000 0.000000 2.827876 9.313902 2.335857 0.000000 0.000000 0.000000 1.249820 9.577266 -6.798575 -16.875899 -26.693362 -4.031700 -21.440542 25.577646 33.001339 0.000000 0.000000 0.000000 7.125000 0.000000 0.000000 13.839086 64.374371 -6.553041
9.134175 16.673316 23.202745 -179.092022 3.901743 -166.991169 0.000000 0.000000 0.000000 -17.740784 -12.300883 -8.728673 0.210137 2.951083 8.142670 0.456975 -2.573227 -12.142840 8.550772 -16.509764 -54.523090 0.000000 0.000000 0.000000 21.244377 4.543484 -9.776667 -0.203353 -2.903821 8.011081 -0.202270 0.522680 -8.321594 -0.524660 4.605429 -12.792461 -6.568361 1.513630 -9.041576 2.158799 2.645304 1.460643 6.368225 1.027235 6.231413 -0.089204 1.344535 -9.504358 2.192766 -2.031097 32.350849 0.342630 -1.751339 12.250321 0.000000 0.000000 0.000000 -1.294287 0.362589 -12.844876 8.871790 -14.955797 1.166894 32.370733 15.642965 17.757823 0.000000 0.000000 0.000000 -7.125000 0.000000 0.000000 2.829489 9.234719 2.341716 0.000000 0.000000 0.000000 1.503173 9.550711 -7.224271 -16.659799 -26.406572 -3.935100 -20.534749 25.532437 33.206795 0.000000 0.000000 0.000000 7.125000 0.000000 0.000000 15.075534 64.325883 -7.133931
9.136032 16.671648 23.195693 -179.080172 3.899812 -167.023626 0.000000 0.000000 0.000000 -17.750012 -12.285062 -8.641050 0.209029 2.943300 8.120992 0.459853 -2.545575 -12.186210 8.537600 -16.500746 -54.476698 0.000000 0.000000 0.000000 21.271386 4.493028 -9.724724 -0.202348 -2.896657 7.991095 -0.253090 1.402435 -9.093101 -0.789822 5.574900 -15.582435 -6.136930 1.536600 -8.971926 1.896423 2.635406 1.441404 5.836483 1.043448 6.201283 -0.426831 1.367030 -9.633238 3.048708 -2.292733 32.601426 0.687748 -1.823631 12.402337 0.000000 0.000000 0.000000 -0.803288 0.420758 -12.554793 8.787711 -14.821390 1.145252 32.384751 15.728798 17.777093 0.000000 0.000000 0.000000 -7.125000 0.000000 0.000000 2.835819 9.209897 2.348387 0.000000 0.000000 0.000000 1.943227 9.564963 -7.615980 -16.512934 -26.211105 -3.869782 -20.464078 26.005502 33.376312 0.000000 0.000000 0.000000 7.125000 0.000000 0.000000 15.304673 64.470917 -7.293669
